<svg width="996" height="156" viewBox="0 0 996 156" fill="none" xmlns="http://www.w3.org/2000/svg">
<g clip-path="url(#clip0_20_71)">
<g clip-path="url(#clip1_20_71)">
<g clip-path="url(#clip2_20_71)">
<g clip-path="url(#clip3_20_71)">
<g clip-path="url(#clip4_20_71)">
<path d="M295.693 120.662C287.434 120.662 279.898 118.545 273.085 114.313C266.271 110.08 260.882 103.886 256.918 95.7305C252.933 87.575 250.941 77.5613 250.941 65.6893C250.941 54.0239 252.954 44.0102 256.98 35.6482C261.006 27.2862 266.633 20.8857 273.859 16.4466C281.085 12.0076 289.499 9.78804 299.1 9.78804C304.261 9.78804 309.63 10.4074 315.204 11.6463C320.779 12.8851 326.56 14.8465 332.548 17.5306L331.464 41.8422H323.876L321.089 22.6407L323.411 25.1183C319.282 23.3633 315.132 22.0419 310.961 21.1541C306.77 20.2869 302.868 19.8534 299.255 19.8534C292.131 19.8534 285.989 21.629 280.827 25.1803C275.665 28.7522 271.67 33.8416 268.842 40.4486C265.992 47.0556 264.568 54.953 264.568 64.1408C264.568 74.0513 266.065 82.4133 269.059 89.2267C272.052 96.0402 276.161 101.233 281.385 104.805C286.588 108.356 292.441 110.132 298.945 110.132C303.694 110.132 308.68 109.099 313.903 107.035C319.106 104.97 324.134 101.821 328.986 97.5887L334.096 105.176C328.005 110.441 321.656 114.333 315.049 116.852C308.442 119.392 301.99 120.662 295.693 120.662ZM379.777 120.662C372.964 120.662 367.337 118.545 362.898 114.313C358.459 110.08 356.24 103.576 356.24 94.8014V45.4038L357.788 47.5717L344.007 44.6296V37.971L368.628 37.0419V92.6335C368.628 98.8275 370.073 103.421 372.964 106.415C375.854 109.409 379.726 110.906 384.578 110.906C388.397 110.906 392.527 109.874 396.966 107.809C401.405 105.744 405.792 102.544 410.128 98.2081L409.199 100.995V45.0941L410.747 47.5717L396.966 44.6296V37.971L421.587 36.887V111.68L419.729 109.667L433.665 112.3V119.113L411.986 120.042L410.128 104.712L411.831 105.331C406.773 110.596 401.425 114.467 395.789 116.945C390.173 119.423 384.836 120.662 379.777 120.662ZM465.874 -0.27729V111.37L464.481 109.667L477.953 112.609V119.268H441.253V112.609L454.725 109.667L453.486 111.37V8.85892L454.725 10.2526L441.253 7.46527V0.806664L465.874 -0.27729ZM483.961 155.503L485.045 146.367C486.284 146.573 487.45 146.728 488.545 146.831C489.618 146.935 490.62 146.986 491.549 146.986C496.607 146.986 500.716 145.83 503.875 143.518C507.013 141.184 509.666 137.695 511.834 133.05C514.002 128.404 516.222 122.623 518.493 115.706L518.028 120.352L489.071 44.9393L490.775 46.3329L480.709 44.6296V37.971L514.622 36.887V43.7005L500.685 46.0232L501.614 44.6296L524.687 110.441L521.9 109.822L544.043 44.9393L544.972 46.3329L531.346 44.6296V37.971L564.174 36.887V43.7005L553.334 46.1781L555.502 44.7844L528.249 119.578C526.39 124.739 524.46 129.54 522.457 133.979C520.434 138.418 518.132 142.32 515.551 145.685C512.97 149.03 509.821 151.632 506.105 153.49C502.388 155.348 497.898 156.277 492.633 156.277C490.258 156.277 487.368 156.019 483.961 155.503ZM643.922 51.5979L642.219 51.9076C647.277 46.6426 652.646 42.6888 658.324 40.046C664.001 37.4238 669.318 36.1127 674.273 36.1127C680.571 36.1127 685.866 38.1981 690.161 42.3687C694.435 46.56 696.572 52.9915 696.572 61.6632V111.835L695.023 109.667L708.65 112.609V119.268H672.725V112.609L685.887 109.667L684.184 111.99V64.4505C684.184 58.05 682.821 53.3529 680.096 50.3591C677.35 47.3653 673.809 45.8684 669.473 45.8684C665.756 45.8684 661.658 46.9523 657.178 49.1203C652.677 51.2882 648.258 54.5917 643.922 59.0307L645.006 56.0886C645.11 57.0177 645.192 57.8952 645.254 58.721C645.295 59.5469 645.316 60.3728 645.316 61.1987V111.835L643.768 109.667L656.62 112.609V119.268H621.624V112.609L634.786 109.667L632.928 111.99V64.4505C632.928 58.05 631.565 53.3529 628.84 50.3591C626.094 47.3653 622.553 45.8684 618.217 45.8684C614.501 45.8684 610.423 46.9007 605.984 48.9654C601.545 51.0301 597.157 54.2303 592.822 58.5662L593.905 56.2434V111.99L592.357 109.822L605.21 112.609V119.268H569.439V112.609L583.376 109.512L581.517 111.835V45.249L583.376 47.5717L569.439 44.6296V37.971L591.118 36.887L592.822 52.0624L591.118 51.443C596.177 46.1781 601.524 42.3068 607.161 39.8292C612.777 37.3516 618.114 36.1127 623.172 36.1127C627.921 36.1127 632.154 37.3722 635.87 39.8911C639.587 42.4307 642.271 46.3329 643.922 51.5979ZM754.176 154.884H715.464V148.225L729.555 144.973L727.542 147.296V45.5587L729.4 47.5717L715.464 44.6296V37.971L737.143 36.887L738.691 50.3591L737.298 49.43C742.046 44.9909 746.795 41.6564 751.544 39.4266C756.293 37.2174 760.99 36.1127 765.635 36.1127C771.417 36.1127 776.599 37.7129 781.183 40.9131C785.787 44.1134 789.431 48.728 792.115 54.7568C794.799 60.8064 796.141 68.2186 796.141 76.9935C796.141 86.491 794.51 94.4917 791.248 100.995C788.006 107.499 783.443 112.423 777.559 115.768C771.675 119.134 764.758 120.816 756.809 120.816C753.918 120.816 750.925 120.558 747.828 120.042C744.731 119.526 741.479 118.855 738.072 118.029L739.93 116.326V147.296L738.227 145.128L754.176 148.225V154.884ZM755.415 111.525C764.5 111.525 771.417 108.583 776.165 102.699C780.914 96.8144 783.289 88.6589 783.289 78.2323C783.289 71.4188 782.328 65.5861 780.408 60.7341C778.509 55.8821 775.907 52.1347 772.604 49.4919C769.3 46.8697 765.532 45.5587 761.3 45.5587C757.686 45.5587 753.939 46.5084 750.057 48.4079C746.197 50.3281 742.305 53.2496 738.382 57.1725L739.93 53.3012V111.37L738.227 108.583C744.524 110.545 750.254 111.525 755.415 111.525ZM833.925 37.0419V111.37L832.531 109.667L846.003 112.609V119.268H809.458V112.609L822.93 109.667L821.537 111.37V46.0232L822.776 47.4169L809.458 44.6296V37.971L833.925 37.0419ZM826.802 20.3179C824.427 20.3179 822.466 19.5437 820.917 17.9951C819.369 16.4466 818.595 14.3303 818.595 11.6463C818.595 8.85893 819.39 6.71165 820.979 5.20443C822.59 3.71786 824.582 2.97458 826.957 2.97458C829.434 2.97458 831.447 3.69722 832.996 5.1425C834.544 6.58778 835.319 8.75569 835.319 11.6463C835.319 14.4336 834.493 16.5705 832.841 18.0571C831.189 19.5643 829.176 20.3179 826.802 20.3179ZM891.808 120.662C885.201 120.662 879.245 119.03 873.938 115.768C868.612 112.527 864.431 107.809 861.396 101.615C858.34 95.4208 856.812 87.9879 856.812 79.3162C856.812 71.7802 857.875 65.297 860.002 59.8669C862.108 54.4575 864.967 49.9977 868.581 46.4878C872.194 42.9778 876.354 40.366 881.062 38.6523C885.748 36.9593 890.621 36.1127 895.68 36.1127C899.809 36.1127 904.227 36.6805 908.935 37.8161C913.622 38.9517 917.72 40.5002 921.23 42.4617L920.611 61.8181H912.249L910.236 47.262L911.474 48.6557C908.894 47.4169 906.158 46.5394 903.267 46.0232C900.377 45.5071 897.796 45.249 895.525 45.249C890.156 45.249 885.542 46.6117 881.681 49.337C877.799 52.0831 874.826 55.9337 872.762 60.8889C870.697 65.8442 869.665 71.7285 869.665 78.542C869.665 85.5619 870.749 91.4979 872.916 96.3499C875.084 101.202 878.057 104.867 881.836 107.344C885.594 109.822 889.847 111.061 894.596 111.061C898.312 111.061 902.235 110.286 906.364 108.738C910.494 107.189 914.778 104.867 919.217 101.77L923.553 108.583C918.185 112.712 912.816 115.758 907.448 117.719C902.08 119.681 896.867 120.662 891.808 120.662ZM950.652 57.3274C950.652 60.6309 951.736 63.2117 953.904 65.0699C956.072 66.9281 958.859 68.4457 962.266 69.6226C965.672 70.8201 969.286 71.9866 973.105 73.1222C976.925 74.2578 980.538 75.6514 983.945 77.3032C987.352 78.9549 990.139 81.2261 992.307 84.1166C994.475 87.0072 995.559 90.8269 995.559 95.5756C995.559 101.047 994.062 105.641 991.068 109.357C988.074 113.074 984.027 115.882 978.928 117.781C973.807 119.701 968.098 120.662 961.801 120.662C957.981 120.662 954.058 120.352 950.032 119.732C946.006 119.113 941.877 118.236 937.644 117.1L938.728 96.3499H946.626L948.174 111.525L946.78 109.822C949.155 110.441 951.736 110.958 954.523 111.37C957.31 111.783 959.891 111.99 962.266 111.99C965.982 111.99 969.42 111.443 972.579 110.348C975.717 109.275 978.267 107.685 980.228 105.579C982.19 103.452 983.17 100.789 983.17 97.5887C983.17 94.182 982.118 91.4979 980.012 89.5364C977.885 87.575 975.118 85.9749 971.711 84.736C968.305 83.4972 964.723 82.3307 960.965 81.2364C957.186 80.1628 953.594 78.7691 950.187 77.0554C946.78 75.3624 943.993 73.1222 941.825 70.3349C939.657 67.5476 938.573 63.7279 938.573 58.8759C938.573 53.6109 939.946 49.2957 942.692 45.9303C945.418 42.5855 949.031 40.1079 953.532 38.4975C958.012 36.9076 962.833 36.1127 967.995 36.1127C971.505 36.1127 975.376 36.4741 979.609 37.1967C983.842 37.9193 988.177 39.0033 992.616 40.4486L991.842 57.9468H983.945L981.622 45.0941L983.48 47.262C978.112 45.7135 973.054 44.9393 968.305 44.9393C963.246 44.9393 959.045 45.9923 955.7 48.0982C952.334 50.2249 950.652 53.3012 950.652 57.3274Z" fill="black"/>
</g>
</g>
</g>
</g>
<g clip-path="url(#clip5_20_71)">
<g clip-path="url(#clip6_20_71)">
<path d="M140.547 46.4583C140.547 64.8762 125.599 79.824 107.181 79.824C88.8074 79.824 73.8595 64.8762 73.8595 46.4583C73.8595 28.0849 88.8074 13.0925 107.181 13.0925C125.599 13.0925 140.547 28.0849 140.547 46.4583Z" fill="black"/>
<path d="M177.249 109.542C177.249 127.915 162.301 142.908 143.928 142.908C125.51 142.908 110.562 127.915 110.562 109.542C110.562 91.1684 125.51 76.1761 143.928 76.1761C162.301 76.1761 177.249 91.1684 177.249 109.542Z" fill="black"/>
<path d="M33.776 79.8242C52.2034 79.8242 67.1418 64.8858 67.1418 46.4584C67.1418 28.031 52.2034 13.0927 33.776 13.0927C15.3486 13.0927 0.410278 28.031 0.410278 46.4584C0.410278 64.8858 15.3486 79.8242 33.776 79.8242Z" fill="black"/>
<path d="M213.951 46.4583C213.951 64.8762 199.003 79.824 180.63 79.824C162.212 79.824 147.264 64.8762 147.264 46.4583C147.264 28.0849 162.212 13.0925 180.63 13.0925C199.003 13.0925 213.951 28.0849 213.951 46.4583Z" fill="black"/>
<path d="M103.844 109.542C103.844 127.915 88.8963 142.908 70.4784 142.908C52.105 142.908 37.1571 127.915 37.1571 109.542C37.1571 91.1684 52.105 76.1761 70.4784 76.1761C88.8963 76.1761 103.844 91.1684 103.844 109.542Z" fill="black"/>
</g>
</g>
</g>
<defs>
<clipPath id="clip0_20_71">
<rect width="995.179" height="156.555" fill="black" transform="translate(0.410278 -0.277283)"/>
</clipPath>
<clipPath id="clip1_20_71">
<rect width="744.68" height="156.555" fill="black" transform="translate(250.91 -0.277283)"/>
</clipPath>
<clipPath id="clip2_20_71">
<rect width="744.68" height="156.555" fill="black" transform="translate(250.91 -0.277283)"/>
</clipPath>
<clipPath id="clip3_20_71">
<rect width="744.68" height="156.555" fill="black" transform="translate(250.91 -0.277283)"/>
</clipPath>
<clipPath id="clip4_20_71">
<rect width="744.68" height="156.555" fill="black" transform="translate(250.91 -0.277283)"/>
</clipPath>
<clipPath id="clip5_20_71">
<rect width="213.541" height="129.815" fill="black" transform="translate(0.410278 13.0925)"/>
</clipPath>
<clipPath id="clip6_20_71">
<rect width="213.541" height="129.815" fill="black" transform="translate(0.410278 13.0925)"/>
</clipPath>
</defs>
</svg>
