<svg xmlns="http://www.w3.org/2000/svg" version="1.1" xmlns:xlink="http://www.w3.org/1999/xlink" xmlns:svgjs="http://svgjs.dev/svgjs" width="1500" height="1500" viewBox="0 0 1500 1500"><rect width="1500" height="1500" fill="#000000"></rect><g transform="matrix(0.6666666666666666,0,0,0.6666666666666666,249.39393939393938,672.2773056343776)"><svg viewBox="0 0 396 62" data-background-color="#f6efd1" preserveAspectRatio="xMidYMid meet" height="234" width="1500" xmlns="http://www.w3.org/2000/svg" xmlns:xlink="http://www.w3.org/1999/xlink"><g id="tight-bounds" transform="matrix(1,0,0,1,0.2400000000000091,-0.11021121366292164)"><svg viewBox="0 0 395.52 62.220422427325836" height="62.220422427325836" width="395.52"><g><svg viewBox="0 0 528.5673359246872 83.15049282595135" height="62.220422427325836" width="395.52"><g transform="matrix(1,0,0,1,133.04733592468722,0)"><svg viewBox="0 0 395.52 83.15049282595135" height="83.15049282595135" width="395.52"><g id="textblocktransform"><svg viewBox="0 0 395.52 83.15049282595135" height="83.15049282595135" width="395.52" id="textblock"><g><svg viewBox="0 0 395.52 83.15049282595135" height="83.15049282595135" width="395.52"><g transform="matrix(1,0,0,1,0,0)"><svg width="395.52" viewBox="3.05 -38.6 240.42999999999998 50.55" height="83.15049282595135" data-palette-color="#af8260"><g class="wordmark-text-0" data-fill-palette-color="primary" id="text-0"><path d="M17.5 0.45L17.5 0.45Q13.5 0.45 10.2-1.6 6.9-3.65 4.98-7.6 3.05-11.55 3.05-17.3L3.05-17.3Q3.05-22.95 5-27 6.95-31.05 10.45-33.2 13.95-35.35 18.6-35.35L18.6-35.35Q21.1-35.35 23.8-34.75 26.5-34.15 29.4-32.85L29.4-32.85 29.05-25 26.6-25 25.7-31.2 26.45-30.4Q24.45-31.25 22.43-31.68 20.4-32.1 18.65-32.1L18.65-32.1Q15.2-32.1 12.7-30.38 10.2-28.65 8.83-25.45 7.45-22.25 7.45-17.8L7.45-17.8Q7.45-13 8.9-9.7 10.35-6.4 12.88-4.67 15.4-2.95 18.55-2.95L18.55-2.95Q20.85-2.95 23.38-3.95 25.9-4.95 28.25-7L28.25-7 29.9-4.55Q26.95-2 23.75-0.78 20.55 0.45 17.5 0.45ZM44.65 0.45L44.65 0.45Q41.35 0.45 39.2-1.6 37.05-3.65 37.05-7.9L37.05-7.9 37.05-23.85 37.55-23.15 33.1-24.1 33.1-26.25 41.05-26.55 41.05-8.6Q41.05-5.6 42.45-4.15 43.85-2.7 46.2-2.7L46.2-2.7Q48.05-2.7 50.2-3.7 52.35-4.7 54.45-6.8L54.45-6.8 54.15-5.9 54.15-23.95 54.65-23.15 50.2-24.1 50.2-26.25 58.15-26.6 58.15-2.45 57.55-3.1 62.05-2.25 62.05-0.05 55.05 0.25 54.45-4.7 55-4.5Q52.55-1.95 49.82-0.75 47.1 0.45 44.65 0.45ZM72.45-38.6L72.45-2.55 72-3.1 76.35-2.15 76.35 0 64.5 0 64.5-2.15 68.85-3.1 68.45-2.55 68.45-35.65 68.85-35.2 64.5-36.1 64.5-38.25 72.45-38.6ZM78.29 11.7L78.29 11.7 78.64 8.75Q79.24 8.85 79.77 8.9 80.29 8.95 80.74 8.95L80.74 8.95Q83.19 8.95 84.72 7.83 86.24 6.7 87.29 4.45 88.34 2.2 89.44-1.15L89.44-1.15 89.29 0.35 79.94-24 80.49-23.55 77.24-24.1 77.24-26.25 88.19-26.6 88.19-24.4 83.69-23.65 83.99-24.1 91.44-2.85 90.54-3.05 97.69-24 97.99-23.55 93.59-24.1 93.59-26.25 104.19-26.6 104.19-24.4 100.69-23.6 101.39-24.05 92.59 0.1Q91.69 2.6 90.72 4.75 89.74 6.9 88.49 8.53 87.24 10.15 85.44 11.05 83.64 11.95 81.09 11.95L81.09 11.95Q79.94 11.95 78.29 11.7ZM129.94-21.85L129.94-21.85 129.39-21.75Q131.84-24.3 134.59-25.58 137.34-26.85 139.74-26.85L139.74-26.85Q142.79-26.85 144.87-24.83 146.94-22.8 146.94-18.6L146.94-18.6 146.94-2.4 146.44-3.1 150.84-2.15 150.84 0 139.24 0 139.24-2.15 143.49-3.1 142.94-2.35 142.94-17.7Q142.94-20.8 141.62-22.25 140.29-23.7 138.19-23.7L138.19-23.7Q136.39-23.7 134.22-22.65 132.04-21.6 129.94-19.45L129.94-19.45 130.29-20.4Q130.34-19.95 130.37-19.55 130.39-19.15 130.39-18.75L130.39-18.75 130.39-2.4 129.89-3.1 134.04-2.15 134.04 0 122.74 0 122.74-2.15 126.99-3.1 126.39-2.35 126.39-17.7Q126.39-20.8 125.07-22.25 123.74-23.7 121.64-23.7L121.64-23.7Q119.84-23.7 117.69-22.7 115.54-21.7 113.44-19.6L113.44-19.6 113.79-20.35 113.79-2.35 113.29-3.05 117.44-2.15 117.44 0 105.89 0 105.89-2.15 110.39-3.15 109.79-2.4 109.79-23.9 110.39-23.15 105.89-24.1 105.89-26.25 112.89-26.6 113.44-21.7 112.89-21.9Q115.34-24.45 118.07-25.65 120.79-26.85 123.24-26.85L123.24-26.85Q125.54-26.85 127.34-25.63 129.14-24.4 129.94-21.85ZM165.54 11.5L153.04 11.5 153.04 9.35 157.59 8.3 156.94 9.05 156.94-23.8 157.54-23.15 153.04-24.1 153.04-26.25 160.04-26.6 160.54-22.25 160.09-22.55Q162.39-24.7 164.69-25.78 166.99-26.85 169.24-26.85L169.24-26.85Q172.04-26.85 174.26-25.3 176.49-23.75 177.79-20.83 179.09-17.9 179.09-13.65L179.09-13.65Q179.09-9.05 177.51-5.9 175.94-2.75 173.09-1.13 170.24 0.5 166.39 0.5L166.39 0.5Q164.99 0.5 163.49 0.25 161.99 0 160.34-0.4L160.34-0.4 160.94-0.95 160.94 9.05 160.39 8.35 165.54 9.35 165.54 11.5ZM165.94-2.5L165.94-2.5Q170.34-2.5 172.64-5.35 174.94-8.2 174.94-13.25L174.94-13.25Q174.94-16.55 174.01-18.9 173.09-21.25 171.49-22.53 169.89-23.8 167.84-23.8L167.84-23.8Q166.09-23.8 164.21-22.88 162.34-21.95 160.44-20.05L160.44-20.05 160.94-21.3 160.94-2.55 160.39-3.45Q163.44-2.5 165.94-2.5ZM191.29-26.55L191.29-2.55 190.84-3.1 195.19-2.15 195.19 0 183.39 0 183.39-2.15 187.74-3.1 187.29-2.55 187.29-23.65 187.69-23.2 183.39-24.1 183.39-26.25 191.29-26.55ZM188.99-31.95L188.99-31.95Q187.84-31.95 187.09-32.7 186.34-33.45 186.34-34.75L186.34-34.75Q186.34-36.1 187.11-36.83 187.89-37.55 189.04-37.55L189.04-37.55Q190.24-37.55 190.99-36.85 191.74-36.15 191.74-34.75L191.74-34.75Q191.74-33.4 190.94-32.68 190.14-31.95 188.99-31.95ZM209.98 0.45L209.98 0.45Q206.78 0.45 204.21-1.13 201.63-2.7 200.16-5.7 198.68-8.7 198.68-12.9L198.68-12.9Q198.68-16.55 199.71-19.18 200.73-21.8 202.48-23.5 204.23-25.2 206.51-26.03 208.78-26.85 211.23-26.85L211.23-26.85Q213.23-26.85 215.51-26.3 217.78-25.75 219.48-24.8L219.48-24.8 219.28-18.55 216.58-18.55 215.93-23.25 216.33-22.8Q215.08-23.4 213.68-23.65 212.28-23.9 211.18-23.9L211.18-23.9Q208.58-23.9 206.71-22.58 204.83-21.25 203.83-18.85 202.83-16.45 202.83-13.15L202.83-13.15Q202.83-9.75 203.88-7.4 204.93-5.05 206.76-3.85 208.58-2.65 210.88-2.65L210.88-2.65Q212.68-2.65 214.68-3.4 216.68-4.15 218.83-5.65L218.83-5.65 220.23-3.45Q217.63-1.45 215.03-0.5 212.43 0.45 209.98 0.45ZM228.98-20L228.98-20Q228.98-18.4 230.03-17.5 231.08-16.6 232.73-16.03 234.38-15.45 236.23-14.9 238.08-14.35 239.73-13.55 241.38-12.75 242.43-11.35 243.48-9.95 243.48-7.65L243.48-7.65Q243.48-5 242.03-3.2 240.58-1.4 238.11-0.48 235.63 0.45 232.58 0.45L232.58 0.45Q230.73 0.45 228.78 0.15 226.83-0.15 224.78-0.7L224.78-0.7 225.13-7.4 227.68-7.4 228.18-2.5 227.73-3.05Q228.88-2.75 230.23-2.55 231.58-2.35 232.73-2.35L232.73-2.35Q234.53-2.35 236.06-2.88 237.58-3.4 238.53-4.42 239.48-5.45 239.48-7L239.48-7Q239.48-8.65 238.46-9.6 237.43-10.55 235.78-11.15 234.13-11.75 232.31-12.28 230.48-12.8 228.83-13.63 227.18-14.45 226.13-15.8 225.08-17.15 225.08-19.5L225.08-19.5Q225.08-22.05 226.41-23.68 227.73-25.3 229.91-26.08 232.08-26.85 234.58-26.85L234.58-26.85Q236.28-26.85 238.33-26.5 240.38-26.15 242.53-25.45L242.53-25.45 242.28-19.8 239.73-19.8 238.98-23.95 239.58-23.25Q236.98-24 234.68-24L234.68-24Q232.23-24 230.61-22.98 228.98-21.95 228.98-20Z" fill="#ffffff" data-fill-palette-color="primary"></path></g></svg></g></svg></g></svg></g></svg></g><g transform="matrix(1,0,0,1,0,7.101052087336242)"><svg viewBox="0 0 113.41750018030793 68.94838865127886" height="68.94838865127886" width="113.41750018030793"><g><svg xmlns="http://www.w3.org/2000/svg" xmlns:xlink="http://www.w3.org/1999/xlink" version="1.1" x="0" y="0" viewBox="6 15.41 48 29.180000000000003" enable-background="new 0 0 60 60" xml:space="preserve" height="68.94838865127886" width="113.41750018030793" class="icon-icon-0" data-fill-palette-color="accent" id="icon-0"><g fill="#803d3b" data-fill-palette-color="accent"><path d="M37.5 22.91C37.5 27.05 34.14 30.41 30 30.41 25.87 30.41 22.51 27.05 22.51 22.91 22.51 18.78 25.87 15.41 30 15.41 34.14 15.41 37.5 18.78 37.5 22.91" fill="#ffffff" data-fill-palette-color="accent"></path><path d="M45.75 37.09C45.75 41.22 42.39 44.59 38.26 44.59 34.12 44.59 30.76 41.22 30.76 37.09S34.12 29.59 38.26 29.59C42.39 29.59 45.75 32.96 45.75 37.09" fill="#ffffff" data-fill-palette-color="accent"></path><circle cx="13.5" cy="22.9100342" r="7.5" fill="#ffffff" data-fill-palette-color="accent"></circle><path d="M54 22.91C54 27.05 50.64 30.41 46.51 30.41 42.37 30.41 39.01 27.05 39.01 22.91 39.01 18.78 42.37 15.41 46.51 15.41 50.64 15.41 54 18.78 54 22.91" fill="#ffffff" data-fill-palette-color="accent"></path><path d="M29.25 37.09C29.25 41.22 25.89 44.59 21.75 44.59 17.62 44.59 14.26 41.22 14.26 37.09S17.62 29.59 21.75 29.59C25.89 29.59 29.25 32.96 29.25 37.09" fill="#ffffff" data-fill-palette-color="accent"></path></g></svg></g></svg></g></svg></g><defs></defs></svg><rect width="395.52" height="62.220422427325836" fill="none" stroke="none" visibility="hidden"></rect></g></svg></g></svg>