<svg width="214" height="130" viewBox="0 0 214 130" fill="none" xmlns="http://www.w3.org/2000/svg">
<g clip-path="url(#clip0_20_83)">
<g clip-path="url(#clip1_20_83)">
<path d="M140.547 33.4583C140.547 51.8762 125.599 66.824 107.181 66.824C88.8074 66.824 73.8595 51.8762 73.8595 33.4583C73.8595 15.0849 88.8074 0.0925064 107.181 0.0925064C125.599 0.0925064 140.547 15.0849 140.547 33.4583Z" fill="white"/>
<path d="M177.249 96.5418C177.249 114.915 162.301 129.908 143.928 129.908C125.51 129.908 110.562 114.915 110.562 96.5418C110.562 78.1684 125.51 63.1761 143.928 63.1761C162.301 63.1761 177.249 78.1684 177.249 96.5418Z" fill="white"/>
<path d="M33.776 66.8242C52.2034 66.8242 67.1418 51.8858 67.1418 33.4584C67.1418 15.031 52.2034 0.092659 33.776 0.092659C15.3486 0.092659 0.410278 15.031 0.410278 33.4584C0.410278 51.8858 15.3486 66.8242 33.776 66.8242Z" fill="white"/>
<path d="M213.951 33.4583C213.951 51.8762 199.003 66.824 180.63 66.824C162.212 66.824 147.264 51.8762 147.264 33.4583C147.264 15.0849 162.212 0.0925064 180.63 0.0925064C199.003 0.0925064 213.951 15.0849 213.951 33.4583Z" fill="white"/>
<path d="M103.844 96.5418C103.844 114.915 88.8963 129.908 70.4784 129.908C52.105 129.908 37.1571 114.915 37.1571 96.5418C37.1571 78.1684 52.105 63.1761 70.4784 63.1761C88.8963 63.1761 103.844 78.1684 103.844 96.5418Z" fill="white"/>
</g>
</g>
<defs>
<clipPath id="clip0_20_83">
<rect width="213.541" height="129.815" fill="black" transform="translate(0.410278 0.0924759)"/>
</clipPath>
<clipPath id="clip1_20_83">
<rect width="213.541" height="129.815" fill="black" transform="translate(0.410278 0.0924759)"/>
</clipPath>
</defs>
</svg>
