<svg xmlns="http://www.w3.org/2000/svg" version="1.1" xmlns:xlink="http://www.w3.org/1999/xlink" xmlns:svgjs="http://svgjs.dev/svgjs" width="1500" height="1500" viewBox="0 0 1500 1500"><rect width="1500" height="1500" fill="#ffffff"></rect><g transform="matrix(0.6666666666666666,0,0,0.6666666666666666,249.39393939393938,672.9853070669213)"><svg viewBox="0 0 396 61" data-background-color="#f6efd1" preserveAspectRatio="xMidYMid meet" height="231" width="1500" xmlns="http://www.w3.org/2000/svg" xmlns:xlink="http://www.w3.org/1999/xlink"><g id="tight-bounds" transform="matrix(1,0,0,1,0.2400000000000091,0.005819928037652744)"><svg viewBox="0 0 395.52 60.98836014392471" height="60.98836014392471" width="395.52"><g><svg viewBox="0 0 525.0698616205253 80.96467895740622" height="60.98836014392471" width="395.52"><g transform="matrix(1,0,0,1,129.54986162052532,0)"><svg viewBox="0 0 395.52 80.96467895740622" height="80.96467895740622" width="395.52"><g id="textblocktransform"><svg viewBox="0 0 395.52 80.96467895740622" height="80.96467895740622" width="395.52" id="textblock"><g><svg viewBox="0 0 395.52 80.96467895740622" height="80.96467895740622" width="395.52"><g transform="matrix(1,0,0,1,0,0)"><svg width="395.52" viewBox="1.75 -35.85 235.93 48.3" height="80.96467895740622" data-palette-color="#af8260"><g class="wordmark-text-0" data-fill-palette-color="primary" id="text-0"><path d="M17.85 0.45L17.85 0.45Q13.1 0.45 9.5-1.78 5.9-4 3.83-7.98 1.75-11.95 1.75-17.15L1.75-17.15Q1.75-21.45 3.15-24.65 4.55-27.85 6.93-30 9.3-32.15 12.3-33.2 15.3-34.25 18.55-34.25L18.55-34.25Q21.6-34.25 24.25-33.6 26.9-32.95 29.6-31.65L29.6-31.65Q29.25-29.9 29.15-27.93 29.05-25.95 29.05-23.9L29.05-23.9Q28.4-23.65 27.65-23.53 26.9-23.4 26.05-23.4L26.05-23.4Q25.95-26.8 25.05-28.65 24.15-30.5 22.58-31.2 21-31.9 18.9-31.9L18.9-31.9Q15.95-31.9 13.83-30.78 11.7-29.65 10.38-27.78 9.05-25.9 8.43-23.5 7.8-21.1 7.8-18.5L7.8-18.5Q7.8-14.1 9.22-10.55 10.65-7 13.4-4.93 16.15-2.85 20.1-2.85L20.1-2.85Q22.4-2.85 24.8-3.6 27.2-4.35 29.25-5.65L29.25-5.65Q29.6-5.4 29.88-4.88 30.15-4.35 30.25-3.95L30.25-3.95Q27.45-1.75 24.58-0.65 21.7 0.45 17.85 0.45ZM43.85 0.2L43.85 0.2Q40.4 0.2 38.47-1.75 36.55-3.7 36.55-8.75L36.55-8.75 36.55-15.8Q36.55-17.7 36.05-18.57 35.55-19.45 33.3-19.5L33.3-19.5Q33.3-20.1 33.37-20.63 33.45-21.15 33.7-21.65L33.7-21.65Q35.55-21.75 37.52-22.25 39.5-22.75 40.65-23.35L40.65-23.35Q41.15-23.15 41.5-22.65 41.85-22.15 41.85-21L41.85-21 41.85-9.9Q41.85-6.55 42.7-4.85 43.55-3.15 45.7-3.15L45.7-3.15Q48.05-3.15 49.65-5.2 51.25-7.25 51.25-11.55L51.25-11.55 51.25-16.05Q51.25-17.95 50.62-18.82 50-19.7 47.55-19.75L47.55-19.75Q47.55-20.35 47.6-20.88 47.65-21.4 47.95-21.9L47.95-21.9Q50.15-22 52.17-22.43 54.2-22.85 55.35-23.35L55.35-23.35Q55.85-23.15 56.2-22.65 56.55-22.15 56.55-21L56.55-21 56.55-6.65 51.95-4.8Q51.7-4.1 51.25-3.45 50.8-2.8 50.2-2.25L50.2-2.25Q48.95-1.05 47.45-0.43 45.95 0.2 43.85 0.2ZM53.05 0.45L53.05 0.45Q52.45 0.2 52.07-0.33 51.7-0.85 51.7-2.45L51.7-2.45Q51.7-3.05 51.8-4.08 51.9-5.1 52.2-6.7L52.2-6.7 56.55-7.25Q56.55-6 56.75-5.2 56.95-4.4 57.6-4.05 58.25-3.7 59.6-3.7L59.6-3.7Q59.6-3.1 59.55-2.4 59.5-1.7 59.25-1.1L59.25-1.1Q57.85-1.05 56.1-0.65 54.35-0.25 53.05 0.45ZM63.1 0.15L63.1 0.15Q63.1-0.45 63.15-1.1 63.2-1.75 63.35-2.25L63.35-2.25Q65.35-2.3 66.07-3.2 66.8-4.1 66.8-6.6L66.8-6.6 66.8-28.55Q66.8-29.7 66.55-30.45 66.3-31.2 65.5-31.6 64.7-32 63.05-32L63.05-32Q63.05-32.6 63.15-33.15 63.25-33.7 63.5-34.15L63.5-34.15Q64.55-34.15 66.05-34.4 67.55-34.65 68.87-35.05 70.2-35.45 70.85-35.85L70.85-35.85Q71.35-35.65 71.7-35.15 72.05-34.65 72.05-33.65L72.05-33.65 72.05-6.6Q72.05-4.1 72.72-3.2 73.4-2.3 75.05-2.25L75.05-2.25Q75.2-1.75 75.27-1.05 75.35-0.35 75.35 0.15L75.35 0.15Q74.5 0.1 73.5 0.08 72.5 0.05 71.4 0.03 70.3 0 69.25 0L69.25 0Q68.2 0 67.05 0.03 65.9 0.05 64.9 0.08 63.9 0.1 63.1 0.15ZM92.64-6.2L96.09-14.9Q97.34-17.95 96.72-19.07 96.09-20.2 94.04-20.6L94.04-20.6Q93.84-21.15 93.74-21.78 93.64-22.4 93.64-23L93.64-23Q94.79-22.95 96.02-22.93 97.24-22.9 98.59-22.9L98.59-22.9Q99.99-22.9 101.24-22.93 102.49-22.95 103.59-23L103.59-23Q103.59-22.45 103.54-21.83 103.49-21.2 103.24-20.6L103.24-20.6Q102.34-20.4 101.74-19.93 101.14-19.45 100.59-18.45 100.04-17.45 99.29-15.65L99.29-15.65 91.94 1.85Q90.54 5.25 89.39 7.35 88.24 9.45 87.24 10.55 86.24 11.65 85.24 12.05 84.24 12.45 83.09 12.45L83.09 12.45Q81.54 12.45 80.57 12 79.59 11.55 79.04 11.05L79.04 11.05Q78.84 10.25 78.89 9.08 78.94 7.9 79.14 7.15L79.14 7.15Q79.99 7.3 80.92 7.43 81.84 7.55 82.79 7.55L82.79 7.55Q84.24 7.55 85.52 6.88 86.79 6.2 87.74 4.7L87.74 4.7Q88.34 3.75 89.72 0.78 91.09-2.2 92.64-6.2L92.64-6.2ZM92.84-4.45L90.04 1.35Q88.79-1.35 87.44-4.35 86.09-7.35 84.84-10.13 83.59-12.9 82.64-14.9L82.64-14.9Q81.59-17.2 80.84-18.35 80.09-19.5 79.44-19.98 78.79-20.45 77.99-20.6L77.99-20.6Q77.84-21.1 77.74-21.73 77.64-22.35 77.64-23L77.64-23Q79.09-22.95 80.64-22.93 82.19-22.9 83.59-22.9L83.59-22.9Q85.04-22.9 87.02-22.93 88.99-22.95 90.54-23L90.54-23Q90.54-22.3 90.47-21.68 90.39-21.05 90.19-20.6L90.19-20.6Q87.59-20.15 87.22-19.1 86.84-18.05 88.19-15.35L88.19-15.35Q88.89-13.9 89.74-11.95 90.59-10 91.42-8.03 92.24-6.05 92.84-4.45L92.84-4.45ZM106.09 0.15L106.09 0.15Q106.09-0.6 106.17-1.2 106.24-1.8 106.39-2.25L106.39-2.25Q108.39-2.35 109.09-3.23 109.79-4.1 109.79-6.6L109.79-6.6 109.79-15.7Q109.79-17.05 109.57-17.85 109.34-18.65 108.54-19.05 107.74-19.45 106.09-19.5L106.09-19.5Q106.09-20.1 106.19-20.63 106.29-21.15 106.54-21.65L106.54-21.65Q107.59-21.7 108.99-21.98 110.39-22.25 111.69-22.63 112.99-23 113.69-23.35L113.69-23.35Q114.14-23.2 114.52-22.7 114.89-22.2 114.89-21.15L114.89-21.15Q114.89-20.35 114.77-19.3 114.64-18.25 114.34-16.15L114.34-16.15 113.89-16.1Q114.64-18.15 114.99-18.88 115.34-19.6 115.59-19.85L115.59-19.85Q116.44-21 118.32-22.18 120.19-23.35 122.69-23.35L122.69-23.35Q124.84-23.35 126.62-22.38 128.39-21.4 129.24-19.2L129.24-19.2Q129.54-18.5 129.54-17.4L129.54-17.4 129.34-17.4Q129.89-18.85 130.59-19.7L130.59-19.7Q131.44-20.8 133.24-21.95 135.04-23.1 137.54-23.1L137.54-23.1Q139.59-23.1 141.24-22.3 142.89-21.5 143.87-19.7 144.84-17.9 144.84-14.85L144.84-14.85 144.84-7Q144.84-5.1 145.14-4.1 145.44-3.1 146.07-2.73 146.69-2.35 147.74-2.25L147.74-2.25Q147.89-1.75 147.94-1.18 147.99-0.6 147.99 0.15L147.99 0.15Q146.89 0.05 145.39 0.03 143.89 0 142.34 0L142.34 0Q141.29 0 140.17 0.03 139.04 0.05 137.97 0.08 136.89 0.1 136.04 0.15L136.04 0.15Q136.04-0.65 136.09-1.23 136.14-1.8 136.29-2.25L136.29-2.25Q137.59-2.35 138.32-2.75 139.04-3.15 139.32-4.15 139.59-5.15 139.59-6.9L139.59-6.9 139.59-13.7Q139.59-17.15 138.42-18.38 137.24-19.6 135.34-19.6L135.34-19.6Q134.04-19.6 132.79-18.78 131.54-17.95 130.74-16.13 129.94-14.3 129.94-11.35L129.94-11.35 129.94-6.65Q129.94-4.1 130.69-3.23 131.44-2.35 133.29-2.25L133.29-2.25Q133.44-1.8 133.52-1.2 133.59-0.6 133.59 0.15L133.59 0.15Q132.34 0.05 130.64 0.03 128.94 0 127.39 0L127.39 0Q125.79 0 124.14 0.03 122.49 0.05 121.14 0.15L121.14 0.15Q121.14-0.6 121.19-1.2 121.24-1.8 121.39-2.25L121.39-2.25Q122.69-2.35 123.42-2.75 124.14-3.15 124.44-4.15 124.74-5.15 124.74-7L124.74-7 124.74-14Q124.74-17.35 123.54-18.6 122.34-19.85 120.39-19.85L120.39-19.85Q119.14-19.85 117.89-18.98 116.64-18.1 115.84-16.28 115.04-14.45 115.04-11.55L115.04-11.55 115.04-6.65Q115.04-4.15 115.74-3.25 116.44-2.35 118.39-2.25L118.39-2.25Q118.54-1.75 118.59-1.18 118.64-0.6 118.64 0.15L118.64 0.15Q117.84 0.1 116.72 0.08 115.59 0.05 114.44 0.03 113.29 0 112.34 0L112.34 0Q111.44 0 110.27 0.03 109.09 0.05 107.99 0.08 106.89 0.1 106.09 0.15ZM151.54 12.25L151.54 12.25Q151.54 11.45 151.59 10.85 151.64 10.25 151.84 9.85L151.84 9.85Q153.19 9.75 153.91 9.35 154.64 8.95 154.94 8 155.24 7.05 155.24 5.3L155.24 5.3 155.24-15.8Q155.24-17.1 155.01-17.88 154.79-18.65 153.99-19.05 153.19-19.45 151.54-19.5L151.54-19.5Q151.54-20.1 151.64-20.65 151.74-21.2 151.99-21.65L151.99-21.65Q153.89-21.75 156.04-22.25 158.19-22.75 159.34-23.35L159.34-23.35Q159.84-23.15 160.19-22.65 160.54-22.15 160.54-21L160.54-21Q160.54-20 160.21-19 159.89-18 159.39-16.45L159.39-16.45 160.54-15.45 160.54 4.35Q160.54 6.5 160.99 7.65 161.44 8.8 162.46 9.25 163.49 9.7 165.14 9.85L165.14 9.85Q165.29 10.3 165.36 10.9 165.44 11.5 165.44 12.25L165.44 12.25Q164.64 12.2 163.54 12.18 162.44 12.15 161.19 12.13 159.94 12.1 158.69 12.1L158.69 12.1Q156.79 12.1 154.74 12.13 152.69 12.15 151.54 12.25ZM164.54 0.45L164.54 0.45Q163.19 0.45 162.16 0.23 161.14 0 159.89-0.4L159.89-0.4 159.89-4.45Q160.84-3.4 161.96-2.73 163.09-2.05 164.74-2.05L164.74-2.05Q165.74-2.05 166.91-2.45 168.09-2.85 169.19-3.88 170.29-4.9 170.99-6.78 171.69-8.65 171.69-11.65L171.69-11.65Q171.69-14.1 171.01-15.98 170.34-17.85 169.14-18.9 167.94-19.95 166.34-19.95L166.34-19.95Q164.94-19.95 163.59-19.05 162.24-18.15 161.39-16.13 160.54-14.1 160.54-10.7L160.54-10.7 158.94-15.95Q159.64-17.65 160.16-18.57 160.69-19.5 161.09-19.9L161.09-19.9Q161.54-20.65 162.51-21.45 163.49-22.25 164.86-22.8 166.24-23.35 167.84-23.35L167.84-23.35Q170.79-23.35 172.89-22.23 174.99-21.1 176.16-18.75 177.34-16.4 177.34-12.8L177.34-12.8Q177.34-9 175.74-6 174.14-3 171.26-1.28 168.39 0.45 164.54 0.45ZM181.04 0.15L181.04 0.15Q181.04-0.45 181.11-1.1 181.19-1.75 181.34-2.25L181.34-2.25Q183.34-2.3 184.04-3.2 184.74-4.1 184.74-6.6L184.74-6.6 184.74-15.95Q184.74-17.15 184.51-17.93 184.29-18.7 183.49-19.1 182.69-19.5 180.99-19.5L180.99-19.5Q180.99-20.1 181.11-20.65 181.24-21.2 181.49-21.65L181.49-21.65Q182.49-21.65 183.99-21.9 185.49-22.15 186.84-22.55 188.19-22.95 188.84-23.35L188.84-23.35Q189.34-23.15 189.69-22.65 190.04-22.15 190.04-21.15L190.04-21.15 190.04-6.6Q190.04-4.1 190.71-3.2 191.39-2.3 193.04-2.25L193.04-2.25Q193.19-1.75 193.24-1.05 193.29-0.35 193.29 0.15L193.29 0.15Q192.49 0.1 191.49 0.08 190.49 0.05 189.39 0.03 188.29 0 187.24 0L187.24 0Q186.14 0 185.01 0.03 183.89 0.05 182.86 0.08 181.84 0.1 181.04 0.15ZM186.94-28.5L186.94-28.5Q185.49-28.5 184.56-29.38 183.64-30.25 183.64-31.55L183.64-31.55Q183.64-33.05 184.64-33.95 185.64-34.85 186.99-34.85L186.99-34.85Q188.54-34.85 189.44-33.95 190.34-33.05 190.34-31.6L190.34-31.6Q190.34-30.35 189.36-29.43 188.39-28.5 186.94-28.5ZM216.08-3.6L216.08-3.6Q214.73-1.6 212.68-0.58 210.63 0.45 207.78 0.45L207.78 0.45Q204.98 0.45 202.53-0.88 200.08-2.2 198.51-4.83 196.93-7.45 196.93-11.35L196.93-11.35Q196.93-14.35 198.18-17.1 199.43-19.85 201.83-21.6 204.23-23.35 207.68-23.35L207.68-23.35Q210.13-23.35 212.08-22.8 214.03-22.25 215.48-21.15L215.48-21.15Q215.28-19.7 215.18-18.28 215.08-16.85 215.08-15.3L215.08-15.3Q214.58-15.05 213.78-14.95 212.98-14.85 212.33-14.85L212.33-14.85Q212.08-17.75 210.78-19.28 209.48-20.8 207.38-20.8L207.38-20.8Q205.08-20.8 203.71-18.53 202.33-16.25 202.33-12.1L202.33-12.1Q202.33-9.7 203.13-7.53 203.93-5.35 205.51-4 207.08-2.65 209.38-2.65L209.38-2.65Q210.98-2.65 212.38-3.35 213.78-4.05 214.83-5.3L214.83-5.3Q215.28-5.05 215.61-4.6 215.93-4.15 216.08-3.6ZM235.93-21.65L235.93-21.65Q235.88-20.4 235.88-19.05 235.88-17.7 236.08-16.4L236.08-16.4Q235.53-16.1 234.76-15.93 233.98-15.75 233.18-15.75L233.18-15.75Q233.08-17.1 232.41-18.3 231.73-19.5 230.58-20.25 229.43-21 227.83-21L227.83-21Q226.38-21 225.53-20.3 224.68-19.6 224.68-18.45L224.68-18.45Q224.68-17.65 225.03-17.03 225.38-16.4 226.63-15.68 227.88-14.95 230.48-13.9L230.48-13.9Q233.23-12.9 234.78-11.88 236.33-10.85 237.01-9.63 237.68-8.4 237.68-6.6L237.68-6.6Q237.68-4.5 236.46-2.9 235.23-1.3 233.06-0.43 230.88 0.45 228.13 0.45L228.13 0.45Q225.08 0.45 223.26-0.03 221.43-0.5 219.63-1.35L219.63-1.35Q219.78-2.2 219.81-3.35 219.83-4.5 219.83-5.63 219.83-6.75 219.73-7.55L219.73-7.55Q220.18-7.9 221.03-8.05 221.88-8.2 222.68-8.2L222.68-8.2Q223.08-5.15 224.56-3.65 226.03-2.15 228.48-2.15L228.48-2.15Q230.33-2.15 231.41-2.98 232.48-3.8 232.48-5.15L232.48-5.15Q232.48-6 232.06-6.65 231.63-7.3 230.53-7.93 229.43-8.55 227.23-9.4L227.23-9.4Q224.63-10.45 223.01-11.4 221.38-12.35 220.63-13.68 219.88-15 219.88-17.05L219.88-17.05Q219.88-18.65 220.68-19.85 221.48-21.05 222.76-21.83 224.03-22.6 225.56-22.98 227.08-23.35 228.48-23.35L228.48-23.35Q230.88-23.35 232.63-22.93 234.38-22.5 235.93-21.65Z" fill="#000000" data-fill-palette-color="primary"></path></g></svg></g></svg></g></svg></g></svg></g><g transform="matrix(1,0,0,1,0,6.914383582962486)"><svg viewBox="0 0 110.43604407097669 67.13591179148125" height="67.13591179148125" width="110.43604407097669"><g><svg xmlns="http://www.w3.org/2000/svg" xml:space="preserve" viewBox="6 15.41 48 29.180000000000003" x="0" y="0" height="67.13591179148125" width="110.43604407097669" class="icon-icon-0" data-fill-palette-color="accent" id="icon-0"><path d="M37.5 22.91c0 4.14-3.36 7.5-7.5 7.5-4.13 0-7.49-3.36-7.49-7.5 0-4.13 3.36-7.5 7.49-7.5 4.14 0 7.5 3.37 7.5 7.5M45.75 37.09c0 4.13-3.36 7.5-7.49 7.5-4.14 0-7.5-3.37-7.5-7.5s3.36-7.5 7.5-7.5c4.13 0 7.49 3.37 7.49 7.5" fill="#000000" data-fill-palette-color="accent"></path><circle cx="13.5" cy="22.91" r="7.5" fill="#000000" data-fill-palette-color="accent"></circle><path d="M54 22.91c0 4.14-3.36 7.5-7.49 7.5-4.14 0-7.5-3.36-7.5-7.5 0-4.13 3.36-7.5 7.5-7.5 4.13 0 7.49 3.37 7.49 7.5M29.25 37.09c0 4.13-3.36 7.5-7.5 7.5-4.13 0-7.49-3.37-7.49-7.5s3.36-7.5 7.49-7.5c4.14 0 7.5 3.37 7.5 7.5" fill="#000000" data-fill-palette-color="accent"></path></svg></g></svg></g></svg></g><defs></defs></svg><rect width="395.52" height="60.98836014392471" fill="none" stroke="none" visibility="hidden"></rect></g></svg></g></svg>